<?xml version="1.0" standalone="no"?>
<!DOCTYPE svg PUBLIC "-//W3C//DTD SVG 20010904//EN"
 "http://www.w3.org/TR/2001/REC-SVG-20010904/DTD/svg10.dtd">
<svg version="1.0" xmlns="http://www.w3.org/2000/svg"
 width="640.000000pt" height="640.000000pt" viewBox="0 0 640.000000 640.000000"
 preserveAspectRatio="xMidYMid meet">

<g transform="translate(0.000000,640.000000) scale(0.100000,-0.100000)"
fill="#000000" stroke="none">
<path d="M2650 4828 l0 -853 163 0 c142 0 171 -3 237 -24 107 -33 225 -83 380
-160 373 -187 618 -357 654 -454 45 -119 48 -460 10 -1205 l-7 -142 42 15
c124 43 261 137 282 191 44 116 79 760 60 1104 -17 308 -34 378 -104 427 -44
31 -247 155 -351 213 l-60 34 51 11 c59 14 97 36 114 66 39 74 75 413 65 619
-14 299 -62 477 -153 564 -127 122 -695 315 -1208 411 -77 14 -148 28 -157 31
-17 5 -18 -40 -18 -848z m708 363 c164 -54 334 -130 407 -182 56 -40 82 -93
102 -206 23 -129 7 -344 -33 -447 -14 -37 -124 -9 -409 104 -93 37 -230 94
-302 126 l-133 58 0 328 0 327 108 -29 c59 -16 176 -52 260 -79z"/>
<path d="M2165 5431 l-160 -97 -3 -1561 -2 -1561 242 -159 c522 -343 773 -489
858 -500 127 -15 511 128 670 250 93 73 94 76 99 347 2 129 -2 417 -8 640 -11
368 -14 409 -32 447 -82 173 -693 532 -1069 629 -81 20 -118 24 -257 24 l-163
0 0 820 c0 451 -3 820 -7 819 -5 0 -80 -44 -168 -98z m435 -2365 l0 -514 183
-100 c100 -55 252 -138 337 -185 85 -46 178 -97 205 -112 28 -15 87 -48 133
-73 l82 -46 0 -112 c0 -62 -3 -119 -6 -128 -9 -23 -70 -20 -151 6 -135 44
-574 280 -930 500 l-113 69 0 605 0 604 130 0 130 0 0 -514z m489 288 c215
-116 397 -241 431 -297 19 -30 20 -51 20 -313 0 -154 -3 -283 -6 -287 -3 -3
-20 3 -37 13 -18 10 -138 73 -267 139 l-235 120 -3 335 c-1 185 1 336 5 336 3
0 45 -21 92 -46z"/>
<path d="M2120 826 l0 -306 93 0 c150 0 197 41 197 170 0 71 -25 128 -61 137
-23 6 -25 19 -4 27 29 11 55 69 55 124 0 109 -44 143 -187 150 l-93 4 0 -306z
m169 208 c29 -36 29 -112 1 -142 -12 -13 -33 -22 -50 -22 l-30 0 0 95 0 95 29
0 c20 0 36 -9 50 -26z m7 -255 c15 -17 19 -36 19 -91 0 -61 -3 -72 -24 -89
-13 -10 -36 -19 -52 -19 l-29 0 0 110 0 110 33 0 c22 0 41 -8 53 -21z"/>
<path d="M2541 1114 c-51 -36 -61 -82 -61 -292 0 -174 2 -197 20 -232 11 -22
31 -46 43 -55 53 -35 137 -31 179 8 48 44 58 93 58 275 0 190 -9 233 -55 279
-30 30 -38 33 -97 33 -43 0 -71 -5 -87 -16z m125 -71 c10 -14 13 -68 14 -222
0 -176 -2 -207 -17 -223 -9 -10 -26 -18 -38 -18 -46 0 -50 19 -50 240 0 224 4
240 53 240 13 0 31 -8 38 -17z"/>
<path d="M2912 1116 c-39 -21 -62 -66 -62 -119 0 -63 17 -96 96 -192 36 -43
72 -91 80 -106 21 -41 18 -96 -5 -109 -52 -27 -91 5 -91 77 l0 43 -40 0 c-44
0 -47 -7 -41 -90 5 -70 57 -110 143 -110 82 0 138 58 138 142 -1 61 -26 109
-114 216 -64 80 -76 100 -76 131 0 43 14 61 50 61 31 0 48 -26 57 -85 5 -43 7
-45 39 -45 31 0 33 2 39 44 9 61 -9 113 -49 137 -36 22 -128 25 -164 5z"/>
<path d="M3170 1096 c0 -34 1 -35 48 -38 l47 -3 3 -267 2 -268 45 0 45 0 0
270 0 270 50 0 50 0 0 35 0 35 -145 0 -145 0 0 -34z"/>
<path d="M3586 1103 c-36 -177 -106 -577 -101 -581 10 -10 79 -1 87 11 4 7 8
24 8 39 0 50 9 58 61 58 44 0 51 -3 59 -26 6 -14 10 -39 10 -55 0 -28 1 -29
51 -29 48 0 51 1 46 23 -4 12 -13 60 -21 107 -17 92 -33 183 -65 354 -12 61
-21 113 -21 118 0 4 -24 8 -54 8 -51 0 -55 -2 -60 -27z m78 -233 c9 -63 19
-127 22 -142 5 -27 4 -28 -40 -28 -25 0 -46 3 -46 6 0 8 28 208 36 253 3 18 7
31 9 30 2 -2 10 -56 19 -119z"/>
<path d="M3870 825 l0 -305 41 0 40 0 -3 190 c-2 104 0 186 3 182 4 -4 37 -89
75 -189 l67 -183 39 0 38 0 0 305 0 305 -40 0 -40 0 -1 -197 0 -198 -72 198
-71 197 -38 0 -38 0 0 -305z"/>
</g>
</svg>
